Patient5_TMGait_0pt45_1_left_13_EMG.mot
version=1
nRows=26
nColumns=33
inDegrees=no
endheader
time	1LAddLong	2LGlutMax	3LGlutMed	4LIliopsoas	5LSemiMemb	6LBicFemLong	7LRecFem	8LTensFascLat	9LVastMed	10LVasLat	11LGasMed	12lGasLat	13LTibAnt	14LPeroneusLong	15LSol	16LTibPost	17RAddLong	18RGlutMax	19RGlutMed	20RIliopsoas	21RSemiMemb	22RBicFemLong	23RRecFem	24RTensFascLat	25RVastMed	26RVasLat	27RGasMed	28RGasLat	29RTibAnt	30RPeroneusLong	31RSol	32RTibPost
22.018	0.003967	-0.000153	0.02121	0.056	0.013123	0.009003	-0.007324	0.4306	0.006409	-0.015259	0.005035	-0.002594	-0.028992	0.022888	0.001221	-0.13809	0.009613	0.021667	0.26428	0.39673	0.010834	-0.29465	-0.019073	0.44754	0.22797	0.067291	-0.010376	0.006561	-0.030518	-0.01297	0.032959	-0.052643
22.019	0.013275	-0.001221	0.016327	0.06073	0.014343	0.009308	-0.024872	0.43518	0.01709	-0.014343	0.004578	0.00946	-0.13153	0.033569	0.00351	-0.26657	0.011597	0.024109	0.3128	0.2919	0.038605	-0.28	-0.014954	0.35584	0.27222	0.090027	-0.031738	0.024414	-0.037689	-0.013733	0.028381	-0.064087
22.02	0.023956	0.002899	-0.028992	0.05127	0.019226	0.004883	-0.019989	0.35294	0.017548	-0.006256	-0.002594	0.009766	-0.11246	0.042419	0.014343	-0.18814	0.004272	0.025177	0.43594	0.34775	-0.067291	-0.21286	-0.021515	0.28091	0.26199	0.040741	0.029755	0.0383	-0.036163	-0.020142	0.037079	-0.057678
22.021	0.07843	-0.000153	-0.033264	0.000916	0.029602	0.017548	-0.021973	0.35111	0.016785	0.002136	-0.001373	0.012817	-0.055847	0.029602	0.024261	-0.21637	-0.020447	0.017853	0.42755	0.19806	-0.16296	0.056305	-0.016632	0.17807	0.22263	-0.032043	0.079956	0.080719	-0.035553	-0.034485	0.039063	-0.051727
22.022	0.074463	0.01297	-0.026398	-0.091705	0.0177	0.015106	-0.012054	0.31006	0.021057	0.000153	-0.011139	0.009766	-0.09491	0.024567	0.023804	-0.4158	-0.008087	0.018005	0.31754	0.33096	-0.086212	0.048828	-0.016632	0.15015	0.19333	-0.10696	0.078888	0.08728	-0.032043	-0.029144	0.03067	-0.054016
22.023	-0.42038	0.007477	-0.020752	-0.02533	0.032501	0.018463	-0.035858	0.34592	0.022736	0.01236	0.00351	0.009003	0.013275	0.013123	0.026703	-0.41382	0.018921	0.003052	0.23895	-0.057373	-0.15274	0.059662	-0.026093	0.1712	0.18112	-0.077362	0.027008	0.079803	-0.027771	-0.035706	0.032806	-0.055389
22.024	-0.12054	0.010071	0.006561	-0.02182	0.027771	0.007477	-0.053101	0.38193	0.024567	0.021667	0	0.006714	0.009918	0.010681	0.031281	-0.3981	-0.004578	-0.007324	0.22308	0.063934	-0.26642	0.12756	-0.020752	0.16739	0.089722	0.041809	0.016327	0.03006	-0.023956	-0.030975	0.016937	-0.090637
22.025	0.018616	0.009003	0.005798	-0.003357	0.014801	0.013275	-0.062256	0.48401	0.016479	0.016632	0.011749	-0.012817	0.12039	0.006409	0.02533	-0.19318	0.001526	-0.018921	0.12344	0.029755	-0.14008	0.26138	-0.020294	0.18005	0.039215	0.047455	0.003662	-0.021667	-0.019836	-0.039673	0.026398	-0.090942
22.026	0.067291	0.002289	0	0.008087	0.019836	0.025787	-0.086212	0.52063	0.014038	0.022736	0.014191	-0.013733	0.000916	-0.008392	0.030212	-0.30518	-0.002136	-0.023651	-0.11551	0.1236	-0.057678	0.26581	-0.01709	0.17792	0.021515	0.073547	0.019684	-0.023193	-0.022888	-0.03006	0.034332	-0.12451
22.027	0.15762	0.006256	-0.006561	0.011292	0.027466	0.024109	-0.075836	0.42618	0.021057	0.019836	0.016785	-0.01297	-0.051727	-0.009766	0.021973	-0.091705	-0.018005	-0.036774	-0.24307	0.080566	-0.001678	0.1796	-0.032959	0.21286	0.024261	0.017548	0.074921	-0.00824	-0.019073	-0.023804	0.036011	-0.058594
22.028	0.18662	0.00946	0.013428	0.018463	0.015106	0.012207	-0.018921	0.40451	0.014801	0.01236	0.026398	-0.018768	-0.066833	0.000763	0.007782	-0.012054	-0.041046	-0.048065	-0.32944	0.16586	0.04303	-0.010223	-0.032501	0.18662	-0.090027	0.006714	-0.042267	-0.0383	-0.017853	-0.015259	0.043182	0.031586
22.029	0.25635	0.014648	0.036316	0.026703	0.015869	0.005188	0.005035	0.37506	-0.003662	0.014954	0.000458	-0.008087	-0.093384	0.009918	-0.007019	0.03952	-0.047302	-0.051575	-0.27969	0.066833	0.0737	-0.31952	-0.033264	0.12588	-0.11749	-0.093994	-0.060577	-0.060577	-0.033722	-0.02243	0.031281	0.12665
22.03	0.22812	0.01236	0.011292	0.037842	0.013885	0.008392	0.01236	0.34119	-0.02121	0.013885	-0.012665	0.003204	-0.065002	0.026245	-0.028534	-0.23224	-0.031738	-0.046692	-0.15839	-0.016327	0.12985	-0.34988	-0.032501	0.06958	-0.087891	-0.3186	-0.00824	-0.060425	-0.060272	-0.00824	0.032654	0.11307
22.031	0.22736	0.007629	0.014801	0.045166	-0.001678	0.02121	-0.002441	0.37048	-0.032654	0.014954	-0.013123	0.010986	0.039215	0.029297	-0.034485	-0.26199	-0.018616	-0.035095	-0.18204	-0.13504	0.072784	-0.29205	-0.034027	0.033875	-0.039063	-0.22339	-0.03067	-0.061035	-0.069122	0.00473	0.037689	0.037079
22.032	0.43289	-0.002289	0.029602	0.065002	0.003662	0.001984	-0.026398	0.37445	-0.020752	0.012512	-0.011139	0.009308	0.09079	0.037994	-0.006714	-0.18967	-0.033722	-0.03952	-0.18707	0.15457	-0.015869	-0.2182	-0.021362	-0.000763	-0.000153	-0.049591	-0.036011	-0.074768	-0.067596	0.00885	0.048523	-0.027008
22.033	0.41596	0.002136	0.020142	0.042419	0.00885	0.017548	-0.044098	0.35019	0.002747	0.017548	-0.01358	0.014038	0.02655	0.045319	0.012817	-0.37323	-0.018616	-0.024567	-0.16571	0.21896	-0.052185	-0.083313	-0.01709	-0.042267	0.032501	0.083923	-0.00885	-0.049744	-0.048676	-0.00061	0.047913	-0.017548
22.034	0.29755	0.00473	0.029297	0.013275	0.008392	0.014648	-0.037994	0.36591	0.003662	0.000153	-0.014801	0.016479	-0.092621	0.04364	0.017548	-0.23636	0.002747	-0.008698	-0.13718	0.21805	-0.058594	-0.080566	-0.02243	-0.10132	0.006104	0.17364	0.015869	0.056152	-0.034637	-0.001678	0.046387	0.020294
22.035	0.19852	0.002289	0.039368	-0.009308	0.007477	0.007782	0.006866	0.37735	0.009766	-0.004425	-0.013885	0.010376	-0.13077	0.042877	0.018311	-0.22095	-0.016479	0.005493	-0.15915	0.10956	0.080109	-0.009003	-0.024719	-0.10681	0.011749	0.14603	0.030365	0.14816	-0.016174	0.00412	0.044708	0.040588
22.036	0.081024	0.001678	0.041962	-0.010986	0.010834	0.018921	0.053864	0.37323	0.017242	-0.001373	-0.006714	0.010529	-0.068665	0.03952	0.019226	-0.17731	0.000458	0.020294	-0.16418	0.042419	0.14526	0.41977	-0.002747	-0.1445	-0.020599	0.22156	0.070343	0.1535	0.005493	0.001221	0.055084	0.032501
22.037	0.068054	0.002594	0.043335	-0.031128	0.023804	0.020142	0.04715	0.32989	0.003052	-0.008545	0.002594	0.007172	0.024109	0.031891	0.02182	-0.21027	-0.000153	0.02121	-0.049744	0.080719	0.25436	0.29846	-0.001221	-0.13367	-0.034027	0.002594	0.10666	0.023041	0.006104	0.010986	0.05661	0.015259
22.038	0.061493	0.011292	0.008698	-0.014496	0.01236	0.01297	0.046844	0.28519	-0.003815	-0.005188	0.000458	0.011902	0.021667	0.023346	0.023804	-0.1651	-0.001068	0.022736	-0.08728	0.13062	0.27557	0.070343	-0.015564	-0.14236	-0.066681	-0.20615	0.033112	-0.081787	-0.007935	0.00946	0.061646	0.034943
22.039	0.032349	0.006104	-0.045166	-0.007324	0.011902	0.009918	0.022125	0.22751	-0.000916	-0.004425	-0.001678	0.00473	0.028839	0.028534	0.023804	-0.21454	-0.00946	0.024414	0.033112	-0.19058	0.11612	-0.15976	-0.022125	-0.18845	-0.051727	-0.13367	-0.063629	-0.11444	-0.017853	0.00885	0.065918	0.037384
22.04	0.042419	0.005646	-0.043335	-0.015564	0.014801	0.017395	0.009308	0.22949	0.001373	0.006714	-0.002289	-0.000153	0.082855	0.025024	0.021362	-0.022888	-0.011292	0.020599	0.16815	-0.02655	-0.059814	-0.35278	-0.019684	-0.16205	-0.040283	-0.048065	-0.21255	-0.17044	-0.008392	0.00412	0.064697	0.022278
22.041	0.045471	0.013275	-0.029602	-0.010681	0.02533	0.011597	0.006409	0.26657	-0.007172	0.002899	0.003357	-0.003204	0.050812	0.017242	0.019226	0.000305	-0.037689	0.015259	0.25787	-0.17777	-0.31403	-0.25818	-0.013428	-0.075684	-0.020752	-0.032959	-0.18875	-0.18631	-0.00885	-0.000153	0.067749	0.029144
22.042	0.081635	-0.002289	-0.005951	-0.081177	0.018311	0.014191	-0.01236	0.27283	-0.00824	-0.006866	0.006409	-0.008087	0.026855	0.00824	0.016174	0.068512	-0.024109	0.00885	0.35614	0.14023	-0.22797	-0.021973	-0.012665	-0.032501	-0.054626	0.000763	-0.15457	-0.066071	-0.017395	0.00412	0.072174	0.035706
22.043	0.10559	0.003052	0.026093	-0.015106	0.028534	0.002594	-0.020752	0.30106	-0.005188	-0.008545	0.009003	-0.016632	0.004578	0.002747	0.029907	-0.050049	-0.011902	-0.006561	0.29358	0.038452	0.037384	0.11871	-0.016479	0.07309	-0.11398	0.001678	-0.10498	0.043488	-0.020599	0.019531	0.065613	0.000305
